PathFileType	4	(X/Y/Z)	/Users/visionmauri/4_2_2_f_1_Sports2D/4_2_2_f_1_Sports2D_px_person00.trc
DataRate	CameraRate	NumFrames	NumMarkers	Units	OrigDataRate	OrigDataStartFrame	OrigNumFrames
30.0	30.0	11	22	m	30.0	203	325
Frame#	Time	Hip			RHip			RKnee			RAnkle			RBigToe			RSmallToe			RHeel			LHip			LKnee			LAnkle			LBigToe			LSmallToe			LHeel			Neck			Head			Nose			RShoulder			RElbow			RWrist			LShoulder			LElbow			LWrist			
		X1	Y1	Z1	X2	Y2	Z2	X3	Y3	Z3	X4	Y4	Z4	X5	Y5	Z5	X6	Y6	Z6	X7	Y7	Z7	X8	Y8	Z8	X9	Y9	Z9	X10	Y10	Z10	X11	Y11	Z11	X12	Y12	Z12	X13	Y13	Z13	X14	Y14	Z14	X15	Y15	Z15	X16	Y16	Z16	X17	Y17	Z17	X18	Y18	Z18	X19	Y19	Z19	X20	Y20	Z20	X21	Y21	Z21	X22	Y22	Z22
203	6.787551440329218	628.3246735236735	847.0507574239488	0.0	572.3754811488409	839.5434222949134	0.0	540.3586116060222	1023.9619818257496	0.0	519.7716665099825	1265.012428967794	0.0	522.9561738166663	1354.117671319635	0.0	491.8650964255458	1345.572169642493	0.0	537.1603599340732	1301.9261772772124	0.0	687.0740681521687	859.759751256555	0.0	677.0433030727364	1069.5529869939517	0.0	669.524296562066	1296.4416471602678	0.0	697.1768803514036	1365.6834085416647	0.0	725.084793340157	1358.2077896467422	0.0	654.2250927059816	1328.8724181059188	0.0	672.4580545089708	556.9075212281342	0.0	678.2362672418022	415.2606167547451	0.0	670.127787968689	524.0016169702262	0.0	574.1383934679745	577.7831836629163	0.0	500.40879237875697	713.2771304331061	0.0	412.0637497999015	826.4520559824722	0.0	773.761191752085	586.1036751546891	0.0	796.4091507917478	736.8118881490157	0.0	796.4758097560145	845.4100574287969	0.0
204	6.820987654320987	630.3010469630805	848.1220523448687	0.0	572.9610298233952	841.0177431146984	0.0	541.4710644101139	1022.3567918795679	0.0	516.5558682686972	1273.960183276071	0.0	518.2384172276973	1358.2928575197209	0.0	487.3055780676487	1345.6752310470774	0.0	536.1693185065079	1312.475917857471	0.0	688.5179517330369	860.3583674517238	0.0	677.9211296109288	1069.4118587730222	0.0	669.7231705563569	1296.4833760579795	0.0	697.0001985413714	1365.550044913955	0.0	726.0170771070882	1357.765590586561	0.0	655.6430359737707	1328.7610275818251	0.0	671.7139546606546	557.1037759112809	0.0	676.7156655434783	414.7668432698168	0.0	669.4217768787998	523.0388619097907	0.0	574.2550800918772	577.196664909659	0.0	500.0438074301168	713.6883894031489	0.0	411.73949033171095	827.3658341842286	0.0	773.0304832422726	586.0390179589398	0.0	793.2223657665273	736.163152920025	0.0	796.7374560727926	847.633820135945	0.0
205	6.854423868312757	631.1222738280227	847.941397542849	0.0	573.5645564315248	841.3692380896063	0.0	542.2642174585404	1017.0073410328312	0.0	514.862150465146	1277.8233306314196	0.0	513.8679775486255	1357.503231509925	0.0	484.6617200412819	1336.809068506511	0.0	536.1344980184616	1318.3525675596752	0.0	690.1614766764519	860.6026690583531	0.0	678.7764157354885	1070.223371608392	0.0	670.155121147615	1296.6036681298247	0.0	696.806142536394	1365.495304030251	0.0	726.9984942163229	1357.3130753086155	0.0	656.1513596899475	1328.7096344803194	0.0	670.3374849657079	557.0393651254334	0.0	675.5083777654731	415.04744375282536	0.0	667.3118374905113	522.0343114982641	0.0	573.8500762539564	577.0152776367305	0.0	499.3046624905738	714.225349757031	0.0	411.6478162545573	827.8034710787598	0.0	771.6201420693769	586.1267287330626	0.0	791.4018505214245	734.727954008537	0.0	797.4128098568513	849.6035170540764	0.0
206	6.887860082304527	631.4640960267218	847.6736957210957	0.0	574.1667452950202	842.5891548021426	0.0	542.7918151685449	1015.5705998220777	0.0	514.3243077345302	1279.5599552971569	0.0	510.5438888475214	1355.067820027203	0.0	483.6001543378089	1330.0106226790654	0.0	536.6853041130051	1322.0886359530973	0.0	691.6087932103501	861.2486577996409	0.0	679.398045165668	1071.8479962960791	0.0	670.4370825433805	1297.2351156876325	0.0	696.5510325853724	1365.1983934423547	0.0	727.4192576646694	1357.07485859028	0.0	656.0050092347581	1329.436418592086	0.0	668.8059784497531	557.2254961991138	0.0	674.2895208044383	415.1819732941589	0.0	664.1853443744745	520.7666443510682	0.0	572.4460838850423	577.3212488458021	0.0	498.7312299784687	714.5935691275411	0.0	411.68074215246935	827.8573638133556	0.0	770.1648144847015	586.6002217150598	0.0	790.9218020047945	733.8688671931798	0.0	798.0216739126688	851.2147283057004	0.0
207	6.921296296296297	632.481255598516	848.9026990556687	0.0	574.611446954952	845.408236243997	0.0	543.3006745171103	1022.2706229312686	0.0	514.3617268795197	1282.1458967956391	0.0	508.6783080082238	1353.9580013236798	0.0	483.14837267730167	1332.6644113781012	0.0	537.4187025055828	1324.99534837858	0.0	692.5349531678561	862.9647234991793	0.0	680.2036213013113	1073.995512805306	0.0	670.3647030292661	1298.0157602248457	0.0	697.5294151239888	1365.170345956045	0.0	727.3322870182086	1356.9139462178375	0.0	655.5680047728434	1330.785167959596	0.0	667.3777968596198	558.0845522561206	0.0	672.1405354172791	414.6969344652561	0.0	660.5527821601054	520.2041089089424	0.0	570.5303861766198	577.8301787875456	0.0	498.00964472865843	714.9200863620872	0.0	411.490009714521	827.2553301323443	0.0	769.0940583889104	587.6928932564542	0.0	790.996042876539	733.890809787917	0.0	797.9857286424933	852.2747459204695	0.0
208	6.954732510288066	633.3349639754271	851.7662438768812	0.0	574.6006359589163	848.8791739497092	0.0	543.189146838656	1031.2896943094786	0.0	514.805803453666	1285.7152008859105	0.0	507.5100576761948	1353.566158872332	0.0	483.0409944504037	1336.5046956477622	0.0	538.2773147069622	1326.6392109402896	0.0	692.9525134793524	865.626046547516	0.0	681.224437907102	1076.6569193314187	0.0	670.1587393169359	1298.2933638776012	0.0	699.1031841601945	1365.844645983025	0.0	726.8035868494323	1356.7257941373125	0.0	655.2717976080929	1331.3801990352665	0.0	665.296120713373	558.9711896089494	0.0	668.1975495214806	413.4379182965884	0.0	655.722357381865	520.0206484041638	0.0	568.0255249064815	577.9132110160862	0.0	496.5324609751101	716.0992775313251	0.0	410.7024074001133	826.7380055988962	0.0	767.7505635712147	588.6072506089151	0.0	790.5232459851441	734.2033443025308	0.0	797.4956761016057	853.0660301714772	0.0
209	6.988168724279835	632.9763098060336	854.9337472949783	0.0	574.0961559774943	852.237902219952	0.0	542.2592221703355	1034.8382781161076	0.0	516.1162331608533	1287.7857291334428	0.0	507.582306944587	1353.0361565326448	0.0	483.49108827159745	1332.6573000115127	0.0	539.5252755748468	1329.4298778014022	0.0	693.0223088707124	868.212019786185	0.0	681.9747410819078	1078.9716116383004	0.0	669.9734649219931	1297.9833631997003	0.0	699.288367627737	1366.5046398813502	0.0	726.2078205149708	1356.681911625299	0.0	655.2067550235295	1330.5212923746742	0.0	662.0572475481443	559.115193933925	0.0	661.7995030496468	412.23887086153053	0.0	649.0421211489828	520.1046114368652	0.0	564.7093307019359	577.7492409184068	0.0	494.3458886448465	718.3322097563031	0.0	409.1786759779857	827.6452782820134	0.0	765.2823204662637	587.71711756309	0.0	789.2639617390121	734.8552573036206	0.0	797.0791511563954	854.0995795080315	0.0
210	7.021604938271605	632.0906988357809	857.610475105925	0.0	573.5219287424298	855.5605167775782	0.0	541.3356481036236	1033.0174197309404	0.0	518.1378754958437	1287.2345938132669	0.0	510.4869119669226	1355.6642569722017	0.0	483.52110194396295	1328.7852685993425	0.0	540.5680650638095	1340.3784033395557	0.0	692.7528276387197	870.2422610627256	0.0	682.5457747800932	1080.3661075157925	0.0	669.8354903581289	1297.166299308713	0.0	697.9452086548487	1366.4207521919564	0.0	726.1112131117653	1356.8252884035292	0.0	655.0333738817287	1329.182965567208	0.0	658.543124272424	558.9276359168771	0.0	653.4306031789612	412.018519403288	0.0	640.8562468221295	521.1945222813025	0.0	561.5171951644584	578.52255621574	0.0	491.96466161727034	719.90644575033	0.0	407.5131116986507	829.1091545738606	0.0	762.1537044651211	585.4285290362207	0.0	788.0775342089016	736.1723432651871	0.0	796.5830142391576	855.1593785046895	0.0
211	7.0550411522633745	631.7461054110101	860.1357162234822	0.0	573.3172896052483	858.9037798511681	0.0	540.8765569521345	1031.5473701004314	0.0	520.4163241681233	1285.559106788585	0.0	516.7249079156935	1365.0928691990937	0.0	483.6703719111268	1337.2923890061832	0.0	541.189208397154	1350.5101391001706	0.0	692.3365437275122	872.2199941632085	0.0	683.1219614507448	1081.6612605469531	0.0	669.7368212575576	1296.2314808855806	0.0	696.1946669634242	1365.8980677694715	0.0	726.1950314243861	1356.6934179910893	0.0	654.560883678317	1328.8557784193176	0.0	655.5420118469692	559.0495890651674	0.0	644.7898721971519	411.86226021677356	0.0	631.6293679129583	521.9979072335233	0.0	558.8075909148976	580.6497927868545	0.0	489.5711300270124	719.7321180763602	0.0	406.2622291492777	829.2485732879145	0.0	759.4906422578225	584.0034768195497	0.0	787.8092905113842	737.6442696061231	0.0	795.6856715265232	855.6428325746048	0.0
212	7.088477366255145	631.7924949780017	862.9240943178485	0.0	573.4167257425606	862.1864573801307	0.0	540.7428377352555	1035.1958327129587	0.0	524.2170978204512	1284.454032508256	0.0	525.0534046115631	1376.2100350942487	0.0	489.562479547091	1352.1444224365503	0.0	543.9342372194558	1317.7508653292966	0.0	692.2797725561949	874.2707885336047	0.0	683.2762800899858	1083.527689677399	0.0	669.5632009570028	1296.026106973623	0.0	694.9151027520262	1365.4332698713124	0.0	725.7806529356504	1355.9750191888736	0.0	654.2728153499506	1329.3996205301287	0.0	652.4381536168405	559.1112152503307	0.0	636.5858112186115	410.477751856327	0.0	621.5504636878017	520.1106727301225	0.0	555.4984519552982	582.9915496423068	0.0	486.65199583809414	719.4903440428723	0.0	404.3901317988601	829.5710607479546	0.0	757.3732317966139	584.1995220862575	0.0	788.4277981038774	738.2724084662171	0.0	794.9801611829805	855.7154690279461	0.0
213	7.121913580246914	631.1972544369021	866.4889694565961	0.0	573.1288654351467	866.4503652550599	0.0	540.8953991443115	1046.4111156943768	0.0	528.9272706901107	1286.0177215373492	0.0	530.5361196977617	1381.9231350246828	0.0	500.9582719639766	1359.5631582485144	0.0	548.9652084612914	1232.0027493210175	0.0	692.216016656805	876.6668105092493	0.0	682.8742655507303	1085.9338795753356	0.0	669.2415148225354	1296.3872452707456	0.0	694.8065575477588	1365.2310391219737	0.0	725.0615798913309	1355.1986559552047	0.0	654.82727115145	1329.1597682608567	0.0	648.3960918359996	558.3233934785246	0.0	628.1549271517111	408.6708476900202	0.0	611.5965635541448	516.2433741329808	0.0	550.9093576540068	584.2932204455085	0.0	482.95828908257715	720.7659380986714	0.0	400.8585441861669	832.7397883554287	0.0	755.0076824830669	584.5465337292163	0.0	789.0000540381062	737.7560321224815	0.0	794.9858222623316	856.1195156292426	0.0
